<svg xmlns="http://www.w3.org/2000/svg" width="136" height="176" viewBox="0 0 136 176" fill="none"><path fill-rule="evenodd" clip-rule="evenodd" d="M36.3358 174.994C-7.93143 157.356 -11.1995 114.456 26.5545 68.0791C31.9022 73.4835 32.1079 83.622 44.106 84.02C46.2542 69.0008 33.4105 55.0918 39.6038 39.6956C45.3857 25.4305 54.2986 13.5953 68.6963 0.985046C68.4678 22.9797 79.7117 37.6637 91.7097 52.0754C104.576 67.5764 118.768 82.3233 128.024 100.045C143.724 130.041 133.692 155.827 101.011 169.883C106.085 151.512 108.598 133.749 91.2527 118.332C88.8988 124.679 87.6418 130.251 84.8537 135.089C81.997 139.97 80.6715 148.747 70.8902 144.558C62.9829 141.185 60.7661 134.754 63.9656 127.171C67.8736 117.85 75.598 109.764 75.9866 96.316C47.8311 117.829 16.4532 134.65 36.3586 175.015L36.3358 174.994Z" fill="url(#paint0_linear_73_17)"></path><defs><linearGradient id="paint0_linear_73_17" x1="0.492554" y1="88.0001" x2="135.298" y2="88.0001" gradientUnits="userSpaceOnUse"><stop stop-color="#E64825"></stop><stop offset="1" stop-color="#F08B2A"></stop></linearGradient></defs></svg>