<svg xmlns="http://www.w3.org/2000/svg" width="121" height="170" viewBox="0 0 121 170" fill="none"><path d="M50.7356 140.191C49.3929 138 35.2596 115.775 1.05689 105.211C0.385558 111.288 0.279557 117.259 0.73889 123.125C2.25822 142.841 7.66422 158.105 16.7449 168.528C17.3809 169.27 18.3702 169.729 19.3949 169.729L57.0602 169.765L57.0956 146.303C54.2336 145.314 51.8662 143.123 50.7356 140.191Z" fill="url(#paint0_linear_73_21)"></path><path d="M70.4869 140.191C69.4269 143.088 67.0596 145.314 64.1622 146.339L64.1269 169.8L101.757 169.835C102.782 169.835 103.771 169.411 104.442 168.634C113.523 158.281 118.964 143.017 120.554 123.301C121.049 117.436 120.978 111.465 120.307 105.387C86.2809 115.775 72.0062 137.753 70.4869 140.191Z" fill="url(#paint1_linear_73_21)"></path><path d="M119.353 98.2853C118.045 90.618 115.89 82.8093 112.851 74.9653C112.533 74.1173 112.215 73.2693 111.897 72.4213C81.7934 84.4347 39.5701 84.3993 9.5721 72.174C9.2541 73.022 8.9361 73.9053 8.58277 74.7887C5.5441 82.6327 3.3181 90.4413 2.0461 98.1087C41.4074 109.875 56.8834 136.269 57.2368 137.364C57.6961 138.848 59.0741 139.873 60.6288 139.873C62.1834 139.873 63.5261 138.883 63.9854 137.399C64.3741 136.269 79.8854 109.91 119.353 98.2853Z" fill="url(#paint2_linear_73_21)"></path><path d="M112.322 2.108C111.721 0.977334 110.52 0.270667 109.212 0.270667L12.4695 0.129333C11.1622 0.129333 9.99619 0.835999 9.36019 1.93133C8.75952 3.062 8.79486 4.47533 9.46619 5.57067C9.64286 5.818 23.1755 27.7953 11.7982 65.4607L12.2575 65.6374C26.0022 71.22 43.3155 74.3293 61.0175 74.3293C78.4722 74.3293 95.6089 71.326 109.283 65.8493L109.672 65.708C98.4002 27.9367 112.004 5.95933 112.18 5.712C112.887 4.652 112.922 3.23867 112.322 2.108ZM91.4749 55.108H91.3689L79.6029 54.896C78.1542 54.8253 76.9529 53.942 76.4229 52.7053C76.3522 52.5287 76.2815 52.352 76.2109 52.1753C75.9635 51.504 75.9635 50.7973 76.1755 50.126L76.3875 39.4907C76.4229 37.5473 78.0835 36.0987 79.9915 36.028C81.9702 36.0633 83.4895 37.6887 83.4542 39.632L83.3482 44.1193C84.7615 42.3173 85.5742 40.056 85.5742 37.6887C85.5742 34.862 84.4789 32.1767 82.4649 30.1627C80.4862 28.184 77.8008 27.0533 74.9742 27.0533C72.1475 27.0533 69.4975 28.1487 67.4835 30.1627C65.4695 32.1413 64.3742 34.8267 64.3742 37.6533C64.3389 47.37 56.4242 55.2847 46.7075 55.2847H46.6722C41.9375 55.2847 37.5209 53.4474 34.1995 50.0907C30.8429 46.734 29.0409 42.3173 29.0409 37.5827C29.0409 33.4133 30.5602 29.4207 33.1749 26.3113L30.1715 26.2407C28.2282 26.2053 26.6735 24.58 26.7089 22.6367C26.7442 20.6933 28.4755 19.28 30.3129 19.174L42.0789 19.4213C44.0222 19.4567 45.5769 21.082 45.5415 23.0253L45.2942 34.7913C45.2589 36.7347 43.6689 38.254 41.7609 38.254C41.7255 38.254 41.7255 38.254 41.6902 38.254C39.7469 38.2187 38.1922 36.5933 38.2275 34.65L38.2982 31.1873C36.9202 32.9893 36.1075 35.2507 36.1075 37.618C36.1075 40.4447 37.2029 43.0947 39.1815 45.1087C41.1955 47.1227 43.8455 48.218 46.6722 48.218H46.7075C52.5375 48.218 57.2722 43.5187 57.3075 37.6533V37.5827C57.3429 27.866 65.2575 19.9867 74.9742 19.9867H75.0095C79.7089 20.022 84.1609 21.8593 87.4822 25.1807C90.8035 28.5373 92.6409 32.954 92.6409 37.6887C92.6409 41.4693 91.4042 45.0733 89.3195 48.006L91.5455 48.0413C93.4889 48.112 95.0435 49.702 94.9729 51.6807C94.9375 53.5887 93.3829 55.108 91.4749 55.108Z" fill="url(#paint3_linear_73_21)"></path><defs><linearGradient id="paint0_linear_73_21" x1="0.458984" y1="84.9824" x2="120.876" y2="84.9824" gradientUnits="userSpaceOnUse"><stop stop-color="#E64825"></stop><stop offset="1" stop-color="#F08B2A"></stop></linearGradient><linearGradient id="paint1_linear_73_21" x1="0.458984" y1="84.9824" x2="120.876" y2="84.9824" gradientUnits="userSpaceOnUse"><stop stop-color="#E64825"></stop><stop offset="1" stop-color="#F08B2A"></stop></linearGradient><linearGradient id="paint2_linear_73_21" x1="0.458984" y1="84.9824" x2="120.876" y2="84.9824" gradientUnits="userSpaceOnUse"><stop stop-color="#E64825"></stop><stop offset="1" stop-color="#F08B2A"></stop></linearGradient><linearGradient id="paint3_linear_73_21" x1="0.458984" y1="84.9824" x2="120.876" y2="84.9824" gradientUnits="userSpaceOnUse"><stop stop-color="#E64825"></stop><stop offset="1" stop-color="#F08B2A"></stop></linearGradient></defs></svg>