<svg xmlns="http://www.w3.org/2000/svg" width="175" height="176" viewBox="0 0 175 176" fill="none"><path d="M84.759 175.344H84.9003C107.478 175.344 128.749 166.546 144.755 150.575C160.796 134.605 169.665 113.334 169.7 90.6853C169.7 81.534 168.287 72.6653 165.496 64.1853C159.171 68.6727 151.468 71.2873 143.13 71.2873C121.647 71.252 104.228 53.7973 104.263 32.3853C104.263 24.294 106.772 16.5207 111.436 10.0193C102.991 7.19265 94.1223 5.74399 85.0063 5.74399H84.9003C62.287 5.74399 41.0163 14.542 25.0103 30.4773C8.96899 46.4833 0.135652 67.754 0.100318 90.4027C0.0296515 137.149 38.013 175.273 84.759 175.344ZM137.9 130.683C137.229 131.283 136.381 131.601 135.568 131.601C134.579 131.601 133.625 131.177 132.918 130.4C130.056 127.149 123.661 130.965 123.59 131.036C121.93 132.061 119.739 131.531 118.714 129.905C117.69 128.245 118.184 126.089 119.81 125.029C124.085 122.379 132.706 119.482 138.218 125.701C139.49 127.185 139.384 129.411 137.9 130.683ZM116.276 83.0887C118.255 81.11 120.94 80.0147 123.767 80.0147C126.594 80.0147 129.279 81.11 131.258 83.124C133.272 85.138 134.367 87.788 134.367 90.6147C134.332 96.4447 129.597 101.215 123.767 101.215C123.732 101.215 123.732 101.215 123.732 101.215C117.902 101.179 113.132 96.4447 113.167 90.5793C113.167 87.7527 114.262 85.1027 116.276 83.0887ZM78.6463 34.6113C81.2963 31.926 84.865 30.4773 88.6103 30.4773H88.6457C96.419 30.4773 102.779 36.8373 102.744 44.646C102.744 48.5327 101.154 52.066 98.6096 54.61C96.0656 57.154 92.5323 58.744 88.6103 58.744C84.8297 58.744 81.261 57.26 78.611 54.5747C75.961 51.9247 74.477 48.356 74.477 44.5753C74.477 40.83 75.961 37.2613 78.6463 34.6113ZM100.27 79.9087C99.599 80.5093 98.751 80.792 97.903 80.792C96.949 80.792 95.9597 80.4033 95.2883 79.626C92.391 76.3753 85.9956 80.2267 85.925 80.262C84.2643 81.2867 82.109 80.792 81.0843 79.1313C80.0243 77.4707 80.519 75.3153 82.1796 74.2553C86.4196 71.6053 95.0763 68.708 100.553 74.9267C101.86 76.4107 101.719 78.6367 100.27 79.9087ZM75.9963 106.868L78.4343 104.289C79.777 102.875 82.0383 102.84 83.4517 104.183C84.865 105.525 84.9003 107.751 83.5576 109.165L81.1197 111.744L83.8756 114.323L86.3137 111.744C87.6563 110.331 89.8823 110.26 91.2957 111.603C92.709 112.945 92.7797 115.207 91.437 116.62L88.999 119.199L91.7197 121.779L94.1576 119.199C95.5003 117.786 97.7263 117.715 99.1397 119.058C100.553 120.401 100.624 122.627 99.281 124.04L96.843 126.619L98.857 128.563C101.118 130.683 102.39 133.58 102.496 136.689C102.567 139.799 101.436 142.731 99.3163 144.993L97.5497 146.83L100.235 149.374C101.648 150.717 101.719 152.943 100.376 154.356C99.6697 155.098 98.751 155.487 97.797 155.487C96.9136 155.487 96.0657 155.133 95.359 154.497L92.709 151.989L90.9423 153.826C88.8223 156.052 85.925 157.359 82.8157 157.43H82.4977C79.5297 157.43 76.703 156.299 74.5123 154.25L72.463 152.307L70.025 154.886C69.3537 155.628 68.3997 156.017 67.481 156.017C66.5977 156.017 65.7143 155.699 65.043 155.027C63.6297 153.685 63.559 151.459 64.9017 150.045L67.3397 147.466L64.619 144.887L62.181 147.466C61.4743 148.173 60.5557 148.561 59.6017 148.561C58.7537 148.561 57.8703 148.243 57.199 147.572C55.7857 146.229 55.715 144.003 57.0577 142.59L59.4957 140.011L56.775 137.431L54.337 140.011C53.6303 140.753 52.7116 141.106 51.7576 141.106C50.8743 141.106 50.0263 140.788 49.3197 140.152C47.9063 138.809 47.871 136.548 49.2136 135.135L51.6516 132.591L49.6023 130.647C44.9737 126.231 44.7616 118.846 49.1783 114.217L50.945 112.345L48.2596 109.836C46.8463 108.493 46.7757 106.267 48.1183 104.819C49.461 103.405 51.687 103.37 53.1003 104.713L55.7857 107.221L57.517 105.384C61.9337 100.755 69.3183 100.543 73.9823 104.96L75.9963 106.868ZM31.9357 55.14H35.9283C36.2463 53.8327 36.7763 52.596 37.4477 51.4653L34.621 48.674C33.243 47.296 33.243 45.0347 34.6563 43.6567C36.0343 42.2787 38.2603 42.314 39.6383 43.692L42.465 46.5187C43.5956 45.812 44.797 45.3173 46.1043 44.9993V41.0067C46.1043 39.0633 47.6943 37.4733 49.6377 37.4733C51.581 37.4733 53.171 39.0633 53.171 41.042V45.0347C54.443 45.3527 55.6796 45.8473 56.775 46.554L59.637 43.692C61.015 42.314 63.241 42.3493 64.619 43.7273C65.997 45.1053 65.997 47.3313 64.619 48.7093L61.757 51.536C62.4283 52.6667 62.9583 53.868 63.2763 55.1753H67.269C69.2477 55.1753 70.8023 56.7653 70.8023 58.7087C70.8023 60.652 69.2123 62.242 67.269 62.242H63.2763C62.9583 63.5493 62.4283 64.786 61.757 65.8813L64.5837 68.708C65.9617 70.086 65.9617 72.312 64.5837 73.69C63.877 74.3967 62.9936 74.7147 62.075 74.7147C61.1563 74.7147 60.273 74.3967 59.5663 73.69L56.7397 70.8633C55.609 71.5347 54.4077 72.0293 53.1357 72.3473L53.1003 76.34C53.1003 78.3187 51.5456 79.8733 49.567 79.8733C47.6236 79.8733 46.0336 78.2833 46.0336 76.34L46.069 72.3473C44.797 72.0293 43.5603 71.5347 42.4296 70.828L39.603 73.6547C38.8963 74.3613 37.9776 74.6793 37.0943 74.6793C36.1756 74.6793 35.2923 74.326 34.5857 73.6547C33.2077 72.2767 33.2077 70.0153 34.5857 68.6373L37.4123 65.8107C36.741 64.68 36.211 63.4787 35.9283 62.2067H31.9357C29.9923 62.1713 28.4023 60.6167 28.4023 58.638C28.4023 56.6947 29.9923 55.14 31.9357 55.14ZM15.0463 99.3773C13.9863 97.7167 14.481 95.5613 16.1417 94.5013C20.3817 91.8513 29.0383 88.954 34.515 95.1727C35.8223 96.6567 35.681 98.8827 34.2323 100.155C33.561 100.755 32.713 101.073 31.865 101.073C30.911 101.073 29.9216 100.649 29.215 99.872C26.3176 96.586 19.9576 100.437 19.9223 100.508C18.2616 101.533 16.071 101.038 15.0463 99.3773Z" fill="url(#paint0_linear_73_24)"></path><path d="M143.165 0.655884C143.165 0.655884 143.165 0.655884 143.13 0.655884C134.65 0.655884 126.7 3.94188 120.693 9.94855C114.651 15.9552 111.33 23.9052 111.33 32.4206C111.294 49.9459 125.534 64.2206 143.094 64.2559H143.13C160.655 64.2559 174.894 50.0166 174.93 32.5266C174.93 24.0112 171.644 16.0259 165.637 10.0192C159.666 4.01255 151.68 0.691217 143.165 0.655884ZM156.344 27.5446L141.434 42.3846C140.727 43.0559 139.844 43.4092 138.925 43.4092C138.006 43.4092 137.123 43.0559 136.416 42.3846L129.915 35.8125C128.537 34.4345 128.537 32.2085 129.915 30.8305C131.293 29.4525 133.519 29.4525 134.897 30.8305L138.925 34.8939L151.327 22.5272C152.705 21.1492 154.931 21.1492 156.309 22.5272C157.687 23.9052 157.722 26.1666 156.344 27.5446Z" fill="url(#paint1_linear_73_24)"></path><defs><linearGradient id="paint0_linear_73_24" x1="0.10022" y1="88.0001" x2="174.93" y2="88.0001" gradientUnits="userSpaceOnUse"><stop stop-color="#E64825"></stop><stop offset="1" stop-color="#F08B2A"></stop></linearGradient><linearGradient id="paint1_linear_73_24" x1="0.10022" y1="88.0001" x2="174.93" y2="88.0001" gradientUnits="userSpaceOnUse"><stop stop-color="#E64825"></stop><stop offset="1" stop-color="#F08B2A"></stop></linearGradient></defs></svg>