<svg xmlns="http://www.w3.org/2000/svg" width="133" height="176" viewBox="0 0 133 176" fill="none"><path d="M15.3016 63.901L19.0745 66.9941C24.071 71.1069 38.211 80.6242 61.4943 80.6242C77.8096 80.6242 95.5864 75.9675 114.281 66.7901L117.544 65.1926C119.176 61.9295 120.025 58.3266 120.025 54.6896C120.025 46.8039 116.049 39.428 109.454 35.0773C109.93 24.3704 112.718 15.9748 115.505 10.2304C117.034 7.00137 115.709 3.16047 112.48 1.59692C111.596 1.18904 110.644 0.951111 109.658 0.951111H22.9494C19.3804 0.951111 16.4912 3.84028 16.4912 7.40925C16.4912 8.39497 16.6952 9.34669 17.137 10.2304C19.8903 16.0088 22.7114 24.4044 23.1873 35.1453C16.6272 39.496 12.7183 46.8379 12.7183 54.6896C12.7183 57.2049 13.1262 59.7202 13.908 62.1335L15.3016 63.901Z" fill="url(#paint0_linear_73_5)"></path><path d="M72.3032 142.214V168.557C72.3032 172.126 75.1923 175.015 78.7613 175.015H110.644C112.684 175.015 114.587 174.063 115.811 172.466C131.786 151.426 134.131 129.672 131.582 111.691C106.429 136.878 83.418 141.603 72.3032 142.214Z" fill="url(#paint1_linear_73_5)"></path><path d="M1.0597 111.793C-1.45558 129.774 0.855758 151.46 16.8312 172.466C18.0548 174.063 19.9583 175.015 21.9637 175.015H53.8465C57.4155 175.015 60.3046 172.126 60.3046 168.557V142.52C32.5006 142.452 7.9937 119.067 1.0597 111.793Z" fill="url(#paint2_linear_73_5)"></path><path d="M116.015 70.3591C115.947 70.2231 115.913 70.0871 115.845 69.9172C58.6391 97.9591 25.8386 77.0211 16.8991 69.6793C16.8312 69.9172 16.7292 70.1211 16.6272 70.3591C16.6272 70.3591 5.88631 85.6547 1.7735 107.442C1.7735 107.442 31.141 141.025 63.3977 138.951C65.1312 138.849 66.8647 138.781 68.6322 138.815C76.314 138.985 102.317 137.082 130.868 107.442C126.721 85.6547 116.015 70.3591 116.015 70.3591Z" fill="url(#paint3_linear_73_5)"></path><defs><linearGradient id="paint0_linear_73_5" x1="12.7183" y1="40.7877" x2="120.025" y2="40.7877" gradientUnits="userSpaceOnUse"><stop stop-color="#E64825"></stop><stop offset="1" stop-color="#F08B2A"></stop></linearGradient><linearGradient id="paint1_linear_73_5" x1="72.3032" y1="143.353" x2="132.461" y2="143.353" gradientUnits="userSpaceOnUse"><stop stop-color="#E64825"></stop><stop offset="1" stop-color="#F08B2A"></stop></linearGradient><linearGradient id="paint2_linear_73_5" x1="0.194397" y1="143.404" x2="60.3046" y2="143.404" gradientUnits="userSpaceOnUse"><stop stop-color="#E64825"></stop><stop offset="1" stop-color="#F08B2A"></stop></linearGradient><linearGradient id="paint3_linear_73_5" x1="1.7735" y1="104.361" x2="130.868" y2="104.361" gradientUnits="userSpaceOnUse"><stop stop-color="#E64825"></stop><stop offset="1" stop-color="#F08B2A"></stop></linearGradient></defs></svg>