<svg xmlns="http://www.w3.org/2000/svg" width="309" height="155" viewBox="0 0 309 155" fill="none"><g clip-path="url(#clip0_214_4)"><path d="M31.7471 81.6871H6.02104C3.25001 81.6871 1.86792 80.305 1.86792 77.5339V4.15312C1.86792 1.38209 3.25001 0 6.02104 0H31.7471C45.2806 0 55.3384 3.27049 61.9205 9.80464C68.4957 16.3456 71.7867 26.6908 71.7867 40.8401C71.7867 54.9894 68.4957 65.3414 61.9205 71.8756C55.3453 78.4166 45.2875 81.6802 31.7471 81.6802V81.6871ZM30.5976 21.6893H27.0192V59.991H30.5976C36.2081 59.991 40.2517 58.6294 42.7149 55.8926C45.178 53.1626 46.4096 48.1406 46.4096 40.8333C46.4096 33.526 45.178 28.5108 42.7149 25.7739C40.2517 23.044 36.2149 21.6756 30.5976 21.6756V21.6893Z" fill="white"></path><path d="M100.393 3.92049V10.0373C100.393 12.6509 99.0863 13.9578 96.4726 13.9578H79.8602C77.2465 13.9578 75.9397 12.6509 75.9397 10.0373V3.92049C75.9397 1.30683 77.2465 0 79.8602 0H96.4726C99.0863 0 100.393 1.30683 100.393 3.92049ZM100.167 23.304V77.7597C100.167 80.3734 98.8605 81.6802 96.2469 81.6802H80.0928C77.4792 81.6802 76.1723 80.3734 76.1723 77.7597V23.304C76.1723 20.6903 77.4792 19.3835 80.0928 19.3835H96.2469C98.8605 19.3835 100.167 20.6903 100.167 23.304Z" fill="white"></path><path d="M105.935 60.5725V23.304C105.935 20.6903 107.242 19.3835 109.856 19.3835H126.01C128.623 19.3835 129.93 20.6903 129.93 23.304V55.7284C129.93 58.4994 130.313 60.5589 131.086 61.8999C131.853 63.2478 133.351 63.9183 135.589 63.9183C140.433 63.9183 142.855 60.8462 142.855 54.6884V23.304C142.855 20.6903 144.162 19.3835 146.775 19.3835H162.929C165.543 19.3835 166.85 20.6903 166.85 23.304V77.7597C166.85 80.3734 165.543 81.6802 162.929 81.6802H148.623C146.467 81.6802 145.12 80.6813 144.586 78.6834L143.32 74.6466C139.625 80.2639 133.974 83.0691 126.359 83.0691C119.284 83.0691 114.111 81.3381 110.841 77.876C107.57 74.414 105.935 68.6461 105.935 60.5725Z" fill="white"></path><path d="M176.08 19.3835H190.386C192.46 19.3835 193.766 20.4987 194.307 22.7292L195.689 28.7297C197.146 25.9587 199.384 23.5571 202.381 21.5182C205.377 19.4793 208.723 18.4598 212.418 18.4598C213.8 18.4598 214.785 18.7472 215.36 19.3219C215.935 19.8966 216.229 20.8408 216.229 22.1477V37.8365C216.229 39.9164 215.114 40.9496 212.883 40.9496C212.343 40.9496 211.556 40.8948 210.523 40.7785C209.483 40.6622 208.579 40.6075 207.813 40.6075C204.043 40.6075 201.156 41.5722 199.158 43.4948C197.16 45.4174 196.161 48.0721 196.161 51.4589V77.7666C196.161 80.3802 194.854 81.6871 192.241 81.6871H176.087C173.473 81.6871 172.166 80.3802 172.166 77.7666V23.304C172.166 20.6903 173.473 19.3835 176.087 19.3835H176.08Z" fill="white"></path><path d="M243.002 3.92049V10.0373C243.002 12.6509 241.695 13.9578 239.081 13.9578H222.469C219.855 13.9578 218.548 12.6509 218.548 10.0373V3.92049C218.548 1.30683 219.855 0 222.469 0H239.081C241.695 0 243.002 1.30683 243.002 3.92049ZM242.769 23.304V77.7597C242.769 80.3734 241.462 81.6802 238.849 81.6802H222.695C220.081 81.6802 218.774 80.3734 218.774 77.7597V23.304C218.774 20.6903 220.081 19.3835 222.695 19.3835H238.849C241.462 19.3835 242.769 20.6903 242.769 23.304Z" fill="white"></path><path d="M284.423 66.922C289.5 66.922 294.536 65.8067 299.537 63.5762C302.001 62.5773 303.65 63.3846 304.498 65.9983L306.804 73.155C307.495 75.235 306.687 76.884 304.382 78.1155C297.923 81.4271 290.499 83.076 282.111 83.076C270.726 83.076 261.975 80.2913 255.865 74.7082C249.748 69.1319 246.69 61.0789 246.69 50.5353C246.69 39.9917 249.577 32.2328 255.345 26.5403C261.113 20.8477 268.919 18.0014 278.765 18.0014C288.611 18.0014 295.726 20.7724 301.036 26.3076C306.345 31.8428 309 39.3075 309 48.6879V54.23C309 56.8436 307.693 58.1505 305.08 58.1505H270.349C272.039 64.0004 276.733 66.922 284.423 66.922ZM279.347 34.1486C276.35 34.1486 274.058 35.0723 272.484 36.9196C270.904 38.767 269.925 41.6885 269.542 45.6843H288.118V44.8769C288.118 37.727 285.197 34.1486 279.347 34.1486Z" fill="white"></path><path d="M34.7575 133.515H17.1804V150.456C17.1804 152.365 16.2225 153.323 14.3135 153.323H2.85997C0.951043 153.323 0 152.365 0 150.456V99.8664C0 97.9574 0.957885 96.9995 2.85997 96.9995H35.7907C37.6996 96.9995 38.6575 97.9574 38.6575 99.8664V108.453C38.6575 110.362 37.6996 111.32 35.7907 111.32H17.1804V119.51H34.7575C36.6117 119.51 37.5422 120.468 37.5422 122.377V130.731C37.5422 132.585 36.6117 133.515 34.7575 133.515Z" fill="#E23D26"></path><path d="M58.0615 99.709V103.924C58.0615 105.73 57.1584 106.626 55.3589 106.626H43.9054C42.0991 106.626 41.2028 105.723 41.2028 103.924V99.709C41.2028 97.9095 42.1059 97.0064 43.9054 97.0064H55.3589C57.1584 97.0064 58.0615 97.9095 58.0615 99.709ZM57.9042 113.071V150.614C57.9042 152.42 57.001 153.316 55.2016 153.316H44.0627C42.2564 153.316 41.3601 152.413 41.3601 150.614V113.071C41.3601 111.272 42.2633 110.369 44.0627 110.369H55.2016C57.001 110.369 57.9042 111.272 57.9042 113.071Z" fill="#E23D26"></path><path d="M86.3807 123.889H80.175V138.524C80.175 139.851 80.4555 140.761 81.0097 141.268C81.564 141.774 82.5355 142.02 83.9108 142.02C84.1229 142.02 84.5608 141.979 85.2244 141.904C85.8881 141.829 86.4286 141.788 86.8528 141.788C88.3376 141.788 89.0833 142.609 89.0833 144.251V150.614C89.0833 151.462 88.8712 152.085 88.447 152.482C88.0228 152.878 87.3592 153.186 86.456 153.398C84.4376 153.877 81.9197 154.117 78.9024 154.117C73.7025 154.117 69.912 153.07 67.5309 150.976C65.1431 148.883 63.9526 145.339 63.9526 140.358V123.896H61.4073C59.601 123.896 58.7047 122.992 58.7047 121.193V114.987C58.7047 113.188 59.6079 112.285 61.4073 112.285H64.1099V102.897C64.1099 101.31 65.0336 100.509 66.8946 100.509H77.2329C79.0871 100.509 80.0176 101.303 80.0176 102.897V112.285H86.3807C88.1802 112.285 89.0833 113.188 89.0833 114.987V121.193C89.0833 122.999 88.1802 123.896 86.3807 123.896V123.889Z" fill="#E23D26"></path><path d="M134.022 153.323H112.627C110.718 153.323 109.767 152.365 109.767 150.456V99.8664C109.767 97.9574 110.725 96.9995 112.627 96.9995H133.146C140.782 96.9995 146.399 98.1558 150.012 100.462C153.617 102.767 155.417 106.654 155.417 112.114C155.417 114.871 154.739 117.231 153.392 119.195C152.037 121.159 150.381 122.534 148.417 123.328C154.042 125.237 156.847 129.636 156.847 136.533C156.847 147.72 149.238 153.316 134.022 153.316V153.323ZM126.783 118.88H132.592C136.676 118.88 138.715 117.32 138.715 114.187C138.715 112.545 138.277 111.388 137.402 110.725C136.526 110.061 134.98 109.733 132.749 109.733H126.783V118.88ZM126.783 140.597H133.228C135.616 140.597 137.285 140.214 138.236 139.441C139.194 138.674 139.666 137.388 139.666 135.582C139.666 133.775 139.153 132.544 138.113 131.723C137.08 130.902 135.37 130.491 132.982 130.491H126.776V140.59L126.783 140.597Z" fill="#E23D26"></path><path d="M176.1 99.709V150.614C176.1 152.42 175.197 153.316 173.398 153.316H162.259C160.453 153.316 159.556 152.413 159.556 150.614V99.709C159.556 97.9095 160.459 97.0064 162.259 97.0064H173.398C175.197 97.0064 176.1 97.9095 176.1 99.709Z" fill="#E23D26"></path><path d="M220.32 124.689V150.621C220.32 152.427 219.417 153.323 217.618 153.323H208.388C206.903 153.323 205.973 152.632 205.603 151.257L204.885 148.951C202.127 152.29 197.728 153.959 191.68 153.959C187.752 153.959 184.55 152.872 182.053 150.696C179.562 148.52 178.317 145.284 178.317 140.994C178.317 138.982 178.584 137.203 179.111 135.664C179.638 134.124 180.466 132.852 181.574 131.846C182.682 130.84 183.934 130.006 185.31 129.342C186.692 128.678 188.423 128.165 190.516 127.789C192.61 127.419 194.69 127.166 196.763 127.036C198.83 126.906 201.327 126.81 204.242 126.756V125.565C204.242 122.862 201.963 121.508 197.4 121.508C194.163 121.508 190.585 122.199 186.658 123.574C184.961 124.21 183.818 123.656 183.237 121.905L181.328 116.02C180.794 114.433 181.355 113.29 182.997 112.599C188.245 110.478 193.944 109.418 200.102 109.418C206.732 109.418 211.754 110.718 215.175 113.318C218.596 115.918 220.307 119.708 220.307 124.689H220.32ZM204.255 137.97V134.706C200.492 134.761 197.837 135.144 196.305 135.855C194.765 136.574 193.999 137.881 193.999 139.796C193.999 141.069 194.382 142.061 195.149 142.78C195.915 143.498 196.989 143.854 198.371 143.854C202.292 143.854 204.255 141.89 204.255 137.97Z" fill="#E23D26"></path><path d="M228.633 148.588C224.521 144.798 222.469 139.215 222.469 131.846C222.469 124.477 224.508 118.894 228.592 115.104C232.677 111.313 238.294 109.418 245.458 109.418C247.949 109.418 250.453 109.712 252.977 110.294C255.495 110.875 257.473 111.621 258.903 112.524C260.497 113.53 260.942 114.803 260.257 116.342L257.555 122.383C256.864 123.923 255.543 124.347 253.58 123.656C251.356 122.917 249.283 122.541 247.374 122.541C241.962 122.541 239.259 125.64 239.259 131.846C239.259 138.052 242.017 141.151 247.531 141.151C249.81 141.151 251.931 140.727 253.894 139.879C255.803 139.03 257.131 139.454 257.87 141.151L260.572 147.117C261.263 148.657 260.812 149.957 259.217 151.011C257.787 151.968 255.81 152.748 253.292 153.357C250.774 153.966 248.215 154.274 245.615 154.274C238.404 154.274 232.746 152.379 228.633 148.588Z" fill="#E23D26"></path><path d="M303.889 153.323H292.305C290.506 153.323 289.103 152.577 288.098 151.093L278.943 137.894V150.621C278.943 152.427 278.04 153.323 276.24 153.323H265.108C263.302 153.323 262.406 152.42 262.406 150.621V99.7158C262.406 97.9164 263.309 97.0132 265.108 97.0132H276.24C278.047 97.0132 278.943 97.9164 278.943 99.7158V123.259L287.352 112.599C288.515 111.115 289.918 110.369 291.56 110.369H302.856C303.862 110.369 304.512 110.732 304.806 111.443C305.1 112.161 304.895 112.941 304.211 113.79L290.609 130.115L305.086 149.923C305.723 150.819 305.907 151.606 305.641 152.29C305.374 152.974 304.792 153.316 303.889 153.316V153.323Z" fill="#E23D26"></path></g><defs><clipPath id="clip0_214_4"><rect width="309" height="154.274" fill="white"></rect></clipPath></defs></svg>